<svg width="884" height="380" viewBox="0 0 884 380" fill="none" xmlns="http://www.w3.org/2000/svg">
<g clip-path="url(#clip0_243_54)">
<g clip-path="url(#clip1_243_54)">
<g clip-path="url(#clip2_243_54)">
<g clip-path="url(#clip3_243_54)">
<path d="M377.224 115.359C377.224 113.282 375.1 111.598 372.48 111.598C369.859 111.598 367.735 113.282 367.735 115.359V264.949C367.735 267.026 369.859 268.71 372.48 268.71C375.1 268.71 377.224 267.026 377.224 264.949V115.359Z" fill="#C8E190"/>
<g clip-path="url(#clip4_243_54)">
<g clip-path="url(#clip5_243_54)">
<g clip-path="url(#clip6_243_54)">
<g clip-path="url(#clip7_243_54)">
<path d="M422.891 186.165H402.066V119.872H439.303C443.992 119.872 448.177 120.36 451.853 121.335C455.53 122.322 458.639 123.734 461.176 125.571C463.695 127.407 465.598 129.622 466.886 132.219C468.174 134.816 468.817 137.728 468.817 140.957C468.817 144.186 468.174 147.098 466.886 149.694C465.598 152.291 463.695 154.506 461.176 156.343C458.639 158.18 455.53 159.585 451.853 160.56C448.177 161.547 443.992 162.041 439.303 162.041H422.891V186.165ZM422.891 131.364V150.549H434.062C438.936 150.549 442.31 149.917 444.185 148.65C446.08 147.383 447.026 145.293 447.026 142.381V139.532C447.026 136.62 446.08 134.531 444.185 133.264C442.31 131.997 438.936 131.364 434.062 131.364H422.891ZM520.121 130.889C515.523 130.889 512.334 130.238 510.55 128.933C508.748 127.641 507.846 126.078 507.846 124.241V121.487C507.846 119.587 508.748 118.005 510.55 116.738C512.334 115.471 515.523 114.838 520.121 114.838C524.719 114.838 527.918 115.471 529.72 116.738C531.504 118.005 532.395 119.587 532.395 121.487V124.241C532.395 126.078 531.504 127.641 529.72 128.933C527.918 130.238 524.719 130.889 520.121 130.889ZM487.297 186.165V175.243H509.915V148.08H487.297V137.158H530.326V175.243H551.289V186.165H487.297ZM606.593 186.165L584.665 142.096H583.148V186.165H565.495V119.872H590.319L612.247 163.941H613.764V119.872H631.417V186.165H606.593ZM696.513 186.165V176.763H695.272C694.444 178.155 693.432 179.485 692.238 180.751C691.043 182.018 689.57 183.145 687.824 184.133C686.078 185.107 684.026 185.88 681.673 186.45C679.337 187.02 676.7 187.305 673.757 187.305C669.068 187.305 664.911 186.545 661.29 185.025C657.649 183.506 654.587 181.289 652.105 178.377C649.622 175.465 647.755 171.919 646.505 167.74C645.272 163.561 644.657 158.844 644.657 153.588C644.657 142.319 647.644 133.687 653.622 127.698C659.599 121.72 668.839 118.732 681.342 118.732C686.307 118.732 690.674 119.194 694.444 120.119C698.215 121.031 701.458 122.322 704.181 123.994C706.884 125.679 709.11 127.692 710.856 130.034C712.602 132.377 713.981 134.973 714.993 137.822L695.685 141.052C695.134 139.659 694.519 138.311 693.837 137.006C693.139 135.714 692.238 134.561 691.134 133.549C690.031 132.536 688.652 131.725 686.997 131.117C685.342 130.523 683.32 130.224 680.929 130.224C675.688 130.224 671.992 131.712 669.84 134.688C667.67 137.665 666.586 141.844 666.586 147.225V158.052C666.586 163.434 667.752 167.74 670.089 170.969C672.441 174.198 676.606 175.813 682.584 175.813C687.273 175.813 690.767 174.863 693.065 172.963C695.363 171.064 696.513 168.627 696.513 165.65V160.807H680.101V150.739H714.993V186.165H696.513Z" fill="#C8E190"/>
<path d="M422.891 264.33H402.066V198.037H439.303C443.992 198.037 448.177 198.525 451.853 199.5C455.53 200.488 458.639 201.899 461.176 203.736C463.695 205.573 465.598 207.787 466.886 210.384C468.174 212.981 468.817 215.893 468.817 219.122C468.817 222.351 468.174 225.263 466.886 227.86C465.598 230.456 463.695 232.671 461.176 234.508C458.639 236.345 455.53 237.75 451.853 238.725C448.177 239.712 443.992 240.206 439.303 240.206H422.891V264.33ZM422.891 209.529V228.714H434.062C438.936 228.714 442.31 228.082 444.185 226.815C446.08 225.548 447.026 223.458 447.026 220.546V217.697C447.026 214.785 446.08 212.696 444.185 211.429C442.31 210.162 438.936 209.529 434.062 209.529H422.891ZM515.708 265.47C510.191 265.47 505.226 264.881 500.813 263.703C496.4 262.539 492.648 260.848 489.559 258.632C486.489 256.415 484.125 253.725 482.47 250.559C480.815 247.392 479.988 243.815 479.988 239.826C479.988 235.837 480.815 232.261 482.47 229.094C484.125 225.928 486.489 223.238 489.559 221.021C492.648 218.805 496.4 217.108 500.813 215.931C505.226 214.766 510.191 214.183 515.708 214.183C521.224 214.183 526.189 214.766 530.602 215.931C535.016 217.108 538.767 218.805 541.856 221.021C544.926 223.238 547.29 225.928 548.945 229.094C550.6 232.261 551.427 235.837 551.427 239.826C551.427 243.815 550.6 247.392 548.945 250.559C547.29 253.725 544.926 256.415 541.856 258.632C538.767 260.848 535.016 262.539 530.602 263.703C526.189 264.881 521.224 265.47 515.708 265.47ZM515.708 255.023C520.306 255.023 523.891 254.041 526.465 252.078C529.038 250.116 530.326 247.33 530.326 243.72V235.932C530.326 232.323 529.038 229.537 526.465 227.575C523.891 225.612 520.306 224.63 515.708 224.63C511.11 224.63 507.524 225.612 504.95 227.575C502.377 229.537 501.089 232.323 501.089 235.932V243.72C501.089 247.33 502.377 250.116 504.95 252.078C507.524 254.041 511.11 255.023 515.708 255.023ZM606.593 264.33L584.665 220.261H583.148V264.33H565.495V198.037H590.319L612.247 242.106H613.764V198.037H631.417V264.33H606.593ZM696.513 264.33V254.928H695.272C694.444 256.32 693.432 257.65 692.238 258.917C691.043 260.184 689.57 261.31 687.824 262.298C686.078 263.272 684.026 264.045 681.673 264.615C679.337 265.185 676.7 265.47 673.757 265.47C669.068 265.47 664.911 264.71 661.29 263.19C657.649 261.671 654.587 259.454 652.105 256.542C649.622 253.63 647.755 250.084 646.505 245.905C645.272 241.726 644.657 237.009 644.657 231.754C644.657 220.484 647.644 211.852 653.622 205.863C659.599 199.885 668.839 196.897 681.342 196.897C686.307 196.897 690.674 197.359 694.444 198.284C698.215 199.196 701.458 200.488 704.181 202.159C706.884 203.844 709.11 205.857 710.856 208.2C712.602 210.542 713.981 213.138 714.993 215.988L695.685 219.217C695.134 217.824 694.519 216.476 693.837 215.171C693.139 213.879 692.238 212.726 691.134 211.714C690.031 210.701 688.652 209.89 686.997 209.282C685.342 208.688 683.32 208.39 680.929 208.39C675.688 208.39 671.992 209.877 669.84 212.853C667.67 215.83 666.586 220.009 666.586 225.39V236.217C666.586 241.599 667.752 245.905 670.089 249.134C672.441 252.363 676.606 253.978 682.584 253.978C687.273 253.978 690.767 253.028 693.065 251.129C695.363 249.229 696.513 246.792 696.513 243.815V238.972H680.101V228.904H714.993V264.33H696.513Z" fill="#C8E190"/>
</g>
</g>
</g>
</g>
<g clip-path="url(#clip8_243_54)">
<g clip-path="url(#clip9_243_54)">
<path d="M325.776 160.293C314.745 152.697 299.451 148.51 282.719 148.51C261.987 148.51 240.918 154.836 224.917 165.86C210.693 175.653 202.647 187.797 202.256 200.056C202.198 201.837 202.347 203.598 202.609 205.351C202.605 205.362 202.601 205.373 202.601 205.385L200.83 236.228L179.357 251C176.592 250.502 173.54 250.975 171.37 252.469C168.122 254.706 168.122 258.331 171.37 260.567L180.189 266.641C181.815 267.761 183.94 268.319 186.069 268.319C188.197 268.319 190.322 267.761 191.948 266.641C194.119 265.146 194.809 263.036 194.073 261.129L215.479 246.385L259.866 245.631C260.848 245.614 261.771 245.46 262.635 245.231C263.974 245.291 265.309 245.371 266.656 245.371C284.948 245.371 303.077 239.824 317.697 229.756C332.051 219.871 340.891 207.312 342.591 194.389C344.35 181.077 338.375 168.97 325.776 160.293ZM217.549 234.89L217.853 229.539C218.98 230.441 220.119 231.343 221.362 232.199C222.676 233.101 224.053 233.94 225.446 234.759L217.549 234.89ZM326.03 193.355C324.678 203.612 317.543 213.666 305.938 221.658C294.287 229.679 280.707 233.917 266.656 233.917C254.232 233.917 242.319 230.429 233.126 224.098C223.662 217.578 218.601 209.128 218.88 200.302C219.179 190.876 225.333 181.761 236.672 173.955C249.579 165.064 266.365 159.961 282.715 159.961C295.185 159.961 306.008 162.879 314.013 168.389C323.061 174.622 327.331 183.488 326.03 193.355ZM241.334 143.777C254.053 143.777 264.403 136.649 264.403 127.884C264.403 119.119 254.053 111.989 241.325 111.989C235.159 111.989 229.362 113.641 225.001 116.642C220.639 119.646 218.24 123.638 218.244 127.884C218.244 136.647 228.606 143.777 241.334 143.777ZM236.764 124.743C237.982 123.904 239.604 123.443 241.329 123.443C244.88 123.443 247.774 125.714 247.774 128.162C247.774 130.61 244.885 132.884 241.334 132.884H241.325C237.77 132.884 234.876 130.613 234.876 128.165C234.876 126.979 235.55 125.579 236.764 124.743Z" fill="#FF851B"/>
</g>
</g>
</g>
</g>
<path d="M0.168213 190.154C0.168213 85.1354 123.793 0 276.29 0C383.201 0 475.92 41.8415 521.8 103.045H516.447C470.972 43.7092 380.491 3.26769 276.29 3.26769C126.414 3.26769 4.91322 86.94 4.91322 190.154C4.91322 293.368 126.414 377.04 276.29 377.04C380.489 377.04 470.972 336.598 516.447 277.263H521.8C475.918 338.465 383.201 380.308 276.29 380.308C123.793 380.308 0.168213 295.172 0.168213 190.154Z" fill="#919591"/>
</g>
</g>
<defs>
<clipPath id="clip0_243_54">
<rect width="883.591" height="380.308" fill="white" transform="translate(0.168213)"/>
</clipPath>
<clipPath id="clip1_243_54">
<rect width="883.591" height="380.308" fill="white" transform="translate(0.168213)"/>
</clipPath>
<clipPath id="clip2_243_54">
<rect width="546.059" height="157.112" fill="white" transform="translate(168.934 111.598)"/>
</clipPath>
<clipPath id="clip3_243_54">
<rect width="546.059" height="157.112" fill="white" transform="translate(168.934 111.598)"/>
</clipPath>
<clipPath id="clip4_243_54">
<rect width="312.927" height="156.33" fill="white" transform="translate(402.066 111.989)"/>
</clipPath>
<clipPath id="clip5_243_54">
<rect width="312.927" height="156.33" fill="white" transform="translate(402.066 111.989)"/>
</clipPath>
<clipPath id="clip6_243_54">
<rect width="312.927" height="156.33" fill="white" transform="translate(402.066 111.989)"/>
</clipPath>
<clipPath id="clip7_243_54">
<rect width="312.927" height="156.33" fill="white" transform="translate(402.066 111.989)"/>
</clipPath>
<clipPath id="clip8_243_54">
<rect width="173.959" height="156.33" fill="white" transform="translate(168.934 111.989)"/>
</clipPath>
<clipPath id="clip9_243_54">
<rect width="173.959" height="156.33" fill="white" transform="translate(168.934 111.989)"/>
</clipPath>
</defs>
</svg>
