<svg width="46" height="46" viewBox="0 0 46 46" fill="none" xmlns="http://www.w3.org/2000/svg">
<g clip-path="url(#clip0_329_79)">
<g clip-path="url(#clip1_329_79)">
<path d="M12.3395 14.1189C11.5068 11.9321 10.3523 10.727 9.08928 10.727C7.52427 10.727 5.93383 12.5479 4.72602 15.7213C3.65223 18.5403 3.04487 22.036 3.01536 25.5647C3.01097 26.0774 3.02227 26.5843 3.04204 27.0887C3.04173 27.092 3.04142 27.0953 3.04142 27.0986L2.9077 35.9768L1.28682 40.2292C1.07809 40.0858 0.847702 40.2218 0.683856 40.652C0.438715 41.2958 0.438715 42.3393 0.683856 42.9831L1.3496 44.7313C1.47233 45.0536 1.63272 45.2143 1.79343 45.2143C1.95413 45.2143 2.11453 45.0536 2.23725 44.7313C2.4011 44.3011 2.4532 43.6936 2.39765 43.1446L4.01351 38.9005L7.36419 38.6837C7.43826 38.6787 7.50795 38.6342 7.57323 38.5683C7.6743 38.5856 7.77506 38.6087 7.87676 38.6087C9.25752 38.6087 10.626 37.0121 11.7296 34.114C12.8132 31.2686 13.4805 27.6534 13.6089 23.9334C13.7416 20.1014 13.2906 16.6164 12.3395 14.1189ZM4.16982 35.5919L4.19273 34.0513C4.27779 34.311 4.3638 34.5706 4.45765 34.8171C4.55684 35.0767 4.66073 35.3182 4.76588 35.5539L4.16982 35.5919ZM12.3587 23.6359C12.2567 26.5884 11.718 29.4824 10.842 31.7829C9.96249 34.0917 8.93736 35.3116 7.87676 35.3116C6.93888 35.3116 6.03961 34.3077 5.34562 32.4852C4.63122 30.6083 4.24923 28.1759 4.27026 25.6355C4.29286 22.9221 4.75741 20.2984 5.61336 18.0515C6.58765 15.4921 7.85478 14.0233 9.08896 14.0233C10.0303 14.0233 10.8473 14.8632 11.4515 16.4491C12.1346 18.2435 12.4569 20.7955 12.3587 23.6359ZM5.96522 9.36454C6.92538 9.36454 7.70663 7.31294 7.70663 4.78986C7.70663 2.26678 6.92538 0.214355 5.96459 0.214355C5.49911 0.214355 5.06156 0.689957 4.7323 1.55379C4.40303 2.41844 4.22192 3.56747 4.22224 4.78986C4.22224 7.31211 5.00443 9.36454 5.96522 9.36454ZM5.62026 3.88564C5.71223 3.64413 5.83465 3.51142 5.96491 3.51142C6.23296 3.51142 6.45142 4.16506 6.45142 4.86981C6.45142 5.57456 6.23327 6.22903 5.96522 6.22903H5.96459C5.69622 6.22903 5.47776 5.57538 5.47776 4.87064C5.47776 4.52939 5.52861 4.12632 5.62026 3.88564Z" fill="white"/>
</g>
</g>
<g clip-path="url(#clip2_329_79)">
<g clip-path="url(#clip3_329_79)">
<g clip-path="url(#clip4_329_79)">
<g clip-path="url(#clip5_329_79)">
<path d="M17.6193 21.5663H15.6316V2.48363H19.1858C19.6333 2.48363 20.0327 2.62416 20.3837 2.90465C20.7346 3.18898 21.0313 3.59524 21.2735 4.12398C21.5139 4.65271 21.6956 5.29026 21.8185 6.03771C21.9415 6.78515 22.0028 7.62337 22.0028 8.55289C22.0028 9.48242 21.9415 10.3206 21.8185 11.0681C21.6956 11.8155 21.5139 12.4531 21.2735 12.9818C21.0313 13.5105 20.7346 13.9152 20.3837 14.1957C20.0327 14.48 19.6333 14.6222 19.1858 14.6222H17.6193V21.5663ZM17.6193 5.79165V11.3141H18.6856C19.1508 11.3141 19.4728 11.1321 19.6518 10.7674C19.8326 10.4027 19.923 9.80119 19.923 8.96298V8.14281C19.923 7.3046 19.8326 6.70314 19.6518 6.33843C19.4728 5.97373 19.1508 5.79165 18.6856 5.79165H17.6193ZM26.8997 5.65496C26.4608 5.65496 26.1565 5.46741 25.9861 5.09178C25.8142 4.71997 25.7281 4.26997 25.7281 3.74123V2.9484C25.7281 2.40162 25.8142 1.94615 25.9861 1.58145C26.1565 1.21675 26.4608 1.03467 26.8997 1.03467C27.3386 1.03467 27.644 1.21675 27.8159 1.58145C27.9862 1.94615 28.0713 2.40162 28.0713 2.9484V3.74123C28.0713 4.26997 27.9862 4.71997 27.8159 5.09178C27.644 5.46741 27.3386 5.65496 26.8997 5.65496ZM23.7667 21.5663V18.4223H25.9256V10.6033H23.7667V7.45933H27.8738V18.4223H29.8747V21.5663H23.7667ZM35.1533 21.5663L33.0603 8.88096H32.9155V21.5663H31.2305V2.48363H33.6L35.693 15.1689H35.8378V2.48363H37.5228V21.5663H35.1533ZM43.736 21.5663V18.8597H43.6176C43.5386 19.2605 43.442 19.6432 43.328 20.0079C43.214 20.3726 43.0734 20.6969 42.9067 20.9812C42.7401 21.2617 42.5442 21.4842 42.3196 21.6483C42.0966 21.8123 41.8449 21.8943 41.564 21.8943C41.1165 21.8943 40.7197 21.6756 40.374 21.2382C40.0265 20.8008 39.7343 20.1627 39.4973 19.3245C39.2604 18.4862 39.0822 17.4654 38.9629 16.2625C38.8452 15.0596 38.7865 13.7019 38.7865 12.189C38.7865 8.94494 39.0716 6.46037 39.6421 4.73637C40.2126 3.01565 41.0946 2.15557 42.288 2.15557C42.7619 2.15557 43.1787 2.28843 43.5386 2.55472C43.8985 2.81717 44.2081 3.18898 44.4679 3.67015C44.7259 4.15514 44.9384 4.73473 45.1051 5.40891C45.2717 6.08309 45.4033 6.83054 45.5 7.65071L43.6571 8.58023C43.6044 8.17944 43.5457 7.79123 43.4807 7.41559C43.4141 7.04378 43.328 6.71188 43.2227 6.42045C43.1173 6.12902 42.9857 5.89554 42.8277 5.72057C42.6698 5.54943 42.4768 5.46359 42.2485 5.46359C41.7483 5.46359 41.3955 5.89172 41.1902 6.74852C40.983 7.60532 40.8795 8.80824 40.8795 10.3573V13.4739C40.8795 15.0229 40.9909 16.2625 41.2139 17.192C41.4384 18.1215 41.836 18.5863 42.4065 18.5863C42.8541 18.5863 43.1876 18.3129 43.4069 17.7661C43.6263 17.2194 43.736 16.5178 43.736 15.661V14.2667H42.1696V11.3688H45.5V21.5663H43.736Z" fill="white"/>
<path d="M17.6193 44.0665H15.6316V24.9838H19.1858C19.6333 24.9838 20.0327 25.1244 20.3837 25.4048C20.7346 25.6892 21.0313 26.0954 21.2735 26.6242C21.5139 27.1529 21.6956 27.7905 21.8185 28.5379C21.9415 29.2853 22.0028 30.1236 22.0028 31.0531C22.0028 31.9826 21.9415 32.8208 21.8185 33.5683C21.6956 34.3157 21.5139 34.9533 21.2735 35.482C21.0313 36.0107 20.7346 36.4154 20.3837 36.6959C20.0327 36.9802 19.6333 37.1223 19.1858 37.1223H17.6193V44.0665ZM17.6193 28.2918V33.8143H18.6856C19.1508 33.8143 19.4728 33.6322 19.6518 33.2675C19.8326 32.9028 19.923 32.3014 19.923 31.4632V30.643C19.923 29.8048 19.8326 29.2033 19.6518 28.8386C19.4728 28.4739 19.1508 28.2918 18.6856 28.2918H17.6193ZM26.4785 44.3945C25.9519 44.3945 25.478 44.225 25.0568 43.886C24.6355 43.5508 24.2775 43.0642 23.9826 42.4261C23.6896 41.788 23.464 41.0138 23.306 40.1023C23.1481 39.1908 23.0691 38.1612 23.0691 37.013C23.0691 35.8648 23.1481 34.8352 23.306 33.9237C23.464 33.0122 23.6896 32.238 23.9826 31.5999C24.2775 30.9618 24.6355 30.4735 25.0568 30.1345C25.478 29.7993 25.9519 29.6315 26.4785 29.6315C27.005 29.6315 27.4789 29.7993 27.9001 30.1345C28.3214 30.4735 28.6794 30.9618 28.9743 31.5999C29.2673 32.238 29.4929 33.0122 29.6509 33.9237C29.8089 34.8352 29.8879 35.8648 29.8879 37.013C29.8879 38.1612 29.8089 39.1908 29.6509 40.1023C29.4929 41.0138 29.2673 41.788 28.9743 42.4261C28.6794 43.0642 28.3214 43.5508 27.9001 43.886C27.4789 44.225 27.005 44.3945 26.4785 44.3945ZM26.4785 41.3872C26.9173 41.3872 27.2596 41.1045 27.5052 40.5397C27.7509 39.9749 27.8738 39.1728 27.8738 38.1339V35.8921C27.8738 34.8532 27.7509 34.0511 27.5052 33.4863C27.2596 32.9214 26.9173 32.6387 26.4785 32.6387C26.0396 32.6387 25.6973 32.9214 25.4517 33.4863C25.2061 34.0511 25.0831 34.8532 25.0831 35.8921V38.1339C25.0831 39.1728 25.2061 39.9749 25.4517 40.5397C25.6973 41.1045 26.0396 41.3872 26.4785 41.3872ZM35.1533 44.0665L33.0603 31.3812H32.9155V44.0665H31.2305V24.9838H33.6L35.693 37.6691H35.8378V24.9838H37.5228V44.0665H35.1533ZM43.736 44.0665V41.3599H43.6176C43.5386 41.7607 43.442 42.1434 43.328 42.5081C43.214 42.8728 43.0734 43.1971 42.9067 43.4814C42.7401 43.7619 42.5442 43.9844 42.3196 44.1485C42.0966 44.3125 41.8449 44.3945 41.564 44.3945C41.1165 44.3945 40.7197 44.1758 40.374 43.7384C40.0265 43.301 39.7343 42.6629 39.4973 41.8247C39.2604 40.9864 39.0822 39.9656 38.9629 38.7627C38.8452 37.5598 38.7865 36.2021 38.7865 34.6892C38.7865 31.4451 39.0716 28.9606 39.6421 27.2366C40.2126 25.5158 41.0946 24.6558 42.288 24.6558C42.7619 24.6558 43.1787 24.7886 43.5386 25.0549C43.8985 25.3174 44.2081 25.6892 44.4679 26.1703C44.7259 26.6553 44.9384 27.2349 45.1051 27.9091C45.2717 28.5833 45.4033 29.3307 45.5 30.1509L43.6571 31.0804C43.6044 30.6796 43.5457 30.2914 43.4807 29.9158C43.4141 29.544 43.328 29.2121 43.2227 28.9206C43.1173 28.6292 42.9857 28.3957 42.8277 28.2208C42.6698 28.0496 42.4768 27.9638 42.2485 27.9638C41.7483 27.9638 41.3955 28.3919 41.1902 29.2487C40.983 30.1055 40.8795 31.3084 40.8795 32.8575V35.9741C40.8795 37.5231 40.9909 38.7627 41.2139 39.6922C41.4384 40.6217 41.836 41.0865 42.4065 41.0865C42.8541 41.0865 43.1876 40.8131 43.4069 40.2663C43.6263 39.7196 43.736 39.018 43.736 38.1612V36.7669H42.1696V33.869H45.5V44.0665H43.736Z" fill="white"/>
</g>
</g>
</g>
</g>
<defs>
<clipPath id="clip0_329_79">
<rect width="13.1316" height="45" fill="white" transform="translate(0.5 0.214355)"/>
</clipPath>
<clipPath id="clip1_329_79">
<rect width="13.1316" height="45" fill="white" transform="translate(0.5 0.214355)"/>
</clipPath>
<clipPath id="clip2_329_79">
<rect width="29.8684" height="45" fill="white" transform="translate(15.6316 0.214355)"/>
</clipPath>
<clipPath id="clip3_329_79">
<rect width="29.8684" height="45" fill="white" transform="translate(15.6316 0.214355)"/>
</clipPath>
<clipPath id="clip4_329_79">
<rect width="29.8684" height="45" fill="white" transform="translate(15.6316 0.214355)"/>
</clipPath>
<clipPath id="clip5_329_79">
<rect width="29.8684" height="45" fill="white" transform="translate(15.6316 0.214355)"/>
</clipPath>
</defs>
</svg>
