<svg width="451" height="319" viewBox="0 0 451 319" fill="none" xmlns="http://www.w3.org/2000/svg">
<path d="M200.704 1.21259C97.0125 9.35843 13.6083 69.6376 2.33745 142.95C-11.1876 224.408 58.6916 294.463 157.875 317.271V279.8C157.875 279.8 148.858 281.429 137.587 281.429C106.029 281.429 92.5041 261.879 90.2499 250.475C87.9958 243.958 83.4874 239.071 76.7249 234.183C69.9624 232.554 67.7083 232.554 67.7083 230.925C67.7083 227.667 74.4708 227.667 76.7249 227.667C90.2499 227.667 101.521 239.071 106.029 243.958C117.3 256.992 130.825 260.25 137.587 260.25C146.604 260.25 153.367 258.621 157.875 256.992C160.129 245.588 166.892 234.183 180.417 227.667C128.571 219.521 90.2499 198.342 90.2499 162.5C90.2499 144.579 101.521 126.658 117.3 113.625C115.046 110.367 112.792 102.221 112.792 90.8168C112.792 84.3001 112.792 74.5251 119.554 64.7501C119.554 64.7501 151.112 64.7501 182.671 85.9293C193.942 82.6709 209.721 81.0418 225.5 81.0418C241.279 81.0418 257.058 82.6709 270.583 85.9293C299.887 64.7501 333.7 64.7501 333.7 64.7501C338.208 74.5251 338.208 84.3001 338.208 90.8168C338.208 103.85 335.954 110.367 333.7 113.625C349.479 126.658 360.75 142.95 360.75 162.5C360.75 198.342 322.429 219.521 270.583 227.667C284.108 235.813 293.125 250.475 293.125 265.138V318.9C385.546 297.721 450.917 235.813 450.917 164.129C450.917 66.3793 335.954 -10.1916 200.704 1.21259Z" fill="white"/>
</svg>
