<svg width="29" height="29" viewBox="0 0 29 29" fill="none" xmlns="http://www.w3.org/2000/svg">
<path d="M2.18 0.414551C1.228 0.414551 0.5 1.14255 0.5 2.09455V26.7346C0.5 27.6866 1.228 28.4146 2.18 28.4146H21.22C22.172 28.4146 22.9 27.6866 22.9 26.7346V23.1503L21.78 24.2703V26.7346C21.78 27.0706 21.556 27.2946 21.22 27.2946H2.18C1.844 27.2946 1.62 27.0706 1.62 26.7346V2.09455C1.62 1.75855 1.844 1.53455 2.18 1.53455H21.22C21.556 1.53455 21.78 1.75855 21.78 2.09455V4.61455C21.892 4.67055 22.004 4.78277 22.06 4.83877L22.9 5.67877V2.09455C22.9 1.14255 22.172 0.414551 21.22 0.414551H2.18ZM20.0945 6.2333C19.9831 6.23333 19.8743 6.26658 19.7819 6.32881C19.6895 6.39103 19.6177 6.4794 19.5758 6.58261C19.5339 6.68583 19.5237 6.7992 19.5465 6.90823C19.5694 7.01727 19.6242 7.11701 19.7041 7.19471L26.3639 13.8546H10.02C9.94579 13.8535 9.87212 13.8672 9.80326 13.8949C9.73439 13.9226 9.67172 13.9636 9.61887 14.0157C9.56602 14.0678 9.52406 14.1299 9.49542 14.1984C9.46677 14.2669 9.45202 14.3403 9.45202 14.4146C9.45202 14.4888 9.46677 14.5622 9.49542 14.6307C9.52406 14.6992 9.56602 14.7613 9.61887 14.8134C9.67172 14.8655 9.73439 14.9065 9.80326 14.9342C9.87212 14.9619 9.94579 14.9756 10.02 14.9746H26.3639L19.3683 21.9702C19.3145 22.0218 19.2716 22.0836 19.2421 22.152C19.2125 22.2204 19.1969 22.294 19.1961 22.3685C19.1954 22.443 19.2095 22.5169 19.2377 22.5859C19.2658 22.6548 19.3075 22.7175 19.3601 22.7702C19.4128 22.8229 19.4755 22.8645 19.5445 22.8927C19.6135 22.9208 19.6874 22.935 19.7619 22.9342C19.8364 22.9334 19.91 22.9178 19.9784 22.8883C20.0467 22.8587 20.1086 22.8158 20.1602 22.7621L28.5077 14.4146L20.4959 6.40283C20.4438 6.34919 20.3813 6.30655 20.3124 6.27743C20.2435 6.24831 20.1694 6.23331 20.0945 6.2333Z" fill="white"/>
</svg>
