<svg width="29" height="29" viewBox="0 0 29 29" fill="none" xmlns="http://www.w3.org/2000/svg">
<path fillRule="evenodd" clipRule="evenodd" d="M14.5 3.58545C12.9529 3.58545 11.4692 4.20003 10.3752 5.29399C9.28127 6.38795 8.66669 7.87169 8.66669 9.41878C8.66669 10.9659 9.28127 12.4496 10.3752 13.5436C10.4522 13.6205 10.5311 13.6951 10.6118 13.7673C9.61249 14.2252 8.69255 14.8603 7.90036 15.6525C6.15002 17.4028 5.16669 19.7768 5.16669 22.2521V23.4188C5.16669 24.0631 5.68902 24.5854 6.33335 24.5854C6.97769 24.5854 7.50002 24.0631 7.50002 23.4188V22.2521C7.50002 20.3956 8.23752 18.6151 9.55027 17.3024C10.863 15.9896 12.6435 15.2521 14.5 15.2521C16.3565 15.2521 18.137 15.9896 19.4498 17.3024C20.7625 18.6151 21.5 20.3956 21.5 22.2521V23.4188C21.5 24.0631 22.0224 24.5854 22.6667 24.5854C23.311 24.5854 23.8334 24.0631 23.8334 23.4188V22.2521C23.8334 19.7768 22.85 17.4028 21.0997 15.6525C20.3075 14.8603 19.3875 14.2252 18.3883 13.7673C18.469 13.6951 18.5479 13.6205 18.6248 13.5436C19.7188 12.4496 20.3334 10.9659 20.3334 9.41878C20.3334 7.87169 19.7188 6.38795 18.6248 5.29399C17.5308 4.20003 16.0471 3.58545 14.5 3.58545ZM12.0251 6.94391C12.6815 6.28753 13.5718 5.91878 14.5 5.91878C15.4283 5.91878 16.3185 6.28753 16.9749 6.94391C17.6313 7.60029 18 8.49052 18 9.41878C18 10.347 17.6313 11.2373 16.9749 11.8937C16.3185 12.55 15.4283 12.9188 14.5 12.9188C13.5718 12.9188 12.6815 12.55 12.0251 11.8937C11.3688 11.2373 11 10.347 11 9.41878C11 8.49052 11.3688 7.60029 12.0251 6.94391Z" fill="white"/>
</svg>
